<svg width="30" height="30" viewBox="0 0 30 30" fill="none" xmlns="http://www.w3.org/2000/svg">
<g clip-path="url(#clip0)">
<path d="M29.3621 11.2422H1.85181C1.50669 11.2422 1.22656 11.5223 1.22656 11.8674V26.873C1.22656 28.5961 2.62835 29.9991 4.3527 29.9991H26.8611C28.5855 29.9991 29.9872 28.5961 29.9872 26.873V11.8674C29.9873 11.5223 29.7072 11.2422 29.3621 11.2422ZM28.7368 26.873C28.7368 27.9071 27.8953 28.7486 26.8611 28.7486H4.35276C3.31861 28.7486 2.47707 27.9071 2.47707 26.873V12.4926H28.7368V26.873Z" fill="white"/>
<path d="M29.9684 5.4571L28.9042 1.41937C28.6591 0.437737 27.6563 -0.178723 26.6622 0.0463609L1.47028 6.02356C0.975095 6.1361 0.55617 6.43744 0.289822 6.87014C0.0234727 7.30278 -0.0553065 7.81297 0.0697203 8.30816L1.24766 12.9649C1.3177 13.2475 1.5728 13.4363 1.85286 13.4363C1.90286 13.4363 1.95415 13.4313 2.0079 13.4176C2.34177 13.3338 2.54435 12.9936 2.4593 12.6585L2.39054 12.3872L29.5019 6.22742C29.6669 6.18868 29.8107 6.0861 29.8983 5.94109C29.9871 5.79601 30.0109 5.62093 29.9684 5.4571ZM2.08428 11.1742L1.28148 8.00429C1.24021 7.83923 1.2677 7.66919 1.35528 7.52412C1.44408 7.38033 1.58411 7.28028 1.75415 7.24024L26.946 1.26433C26.991 1.25308 27.0372 1.2481 27.0823 1.2481C27.3624 1.2481 27.6212 1.44065 27.6925 1.72951L28.5941 5.14954L2.08428 11.1742Z" fill="white"/>
<path d="M7.1336 11.3069C6.82347 11.1556 6.45085 11.2781 6.29329 11.587L3.79234 16.5888C3.63853 16.8977 3.76356 17.2728 4.07246 17.4279C4.16373 17.4729 4.2588 17.4942 4.35259 17.4942C4.58142 17.4942 4.80276 17.3679 4.91278 17.1478L7.41372 12.146C7.56753 11.837 7.44245 11.4619 7.1336 11.3069Z" fill="white"/>
<path d="M13.3863 11.3069C13.0774 11.1556 12.7023 11.2781 12.5472 11.587L10.0462 16.5888C9.89244 16.8977 10.0175 17.2728 10.3264 17.4279C10.4176 17.4729 10.5127 17.4942 10.6065 17.4942C10.8353 17.4942 11.0567 17.3679 11.1655 17.1478L13.6664 12.146C13.8201 11.837 13.6951 11.4619 13.3863 11.3069Z" fill="white"/>
<path d="M19.6363 11.3069C19.3287 11.1556 18.9535 11.2781 18.7972 11.587L16.2962 16.5888C16.1424 16.8977 16.2675 17.2728 16.5764 17.4279C16.6676 17.4729 16.7627 17.4942 16.8565 17.4942C17.0853 17.4942 17.3067 17.3679 17.4155 17.1478L19.9164 12.146C20.0702 11.837 19.9451 11.4619 19.6363 11.3069Z" fill="white"/>
<path d="M25.8902 11.3069C25.58 11.1556 25.2074 11.2781 25.0511 11.587L22.5502 16.5888C22.3963 16.8977 22.5214 17.2728 22.8303 17.4279C22.9215 17.4729 23.0166 17.4942 23.1104 17.4942C23.3392 17.4942 23.5606 17.3679 23.6694 17.1478L26.1703 12.146C26.3241 11.837 26.199 11.4619 25.8902 11.3069Z" fill="white"/>
<path d="M29.3621 16.2461H1.85181C1.50669 16.2461 1.22656 16.5262 1.22656 16.8713C1.22656 17.2165 1.50669 17.4966 1.85181 17.4966H29.3621C29.7084 17.4966 29.9873 17.2165 29.9873 16.8713C29.9873 16.5262 29.7072 16.2461 29.3621 16.2461Z" fill="white"/>
<path d="M7.89701 10.1496L3.59041 5.84304C3.34657 5.5992 2.95016 5.5992 2.70632 5.84304C2.46248 6.08688 2.46248 6.48329 2.70632 6.72713L7.01291 11.035C7.13548 11.1562 7.2955 11.2176 7.45558 11.2176C7.61566 11.2176 7.77568 11.1563 7.89701 11.0337C8.14085 10.7898 8.14085 10.3935 7.89701 10.1496Z" fill="white"/>
<path d="M14.014 8.76292L9.7037 4.45632C9.45986 4.21248 9.06344 4.21248 8.8196 4.45632C8.57576 4.70016 8.57576 5.09657 8.8196 5.34042L13.1287 9.64701C13.2513 9.76829 13.4113 9.8296 13.5714 9.8296C13.7315 9.8296 13.8915 9.76835 14.014 9.64701C14.2579 9.40317 14.2579 9.00676 14.014 8.76292Z" fill="white"/>
<path d="M20.1276 7.37352L15.8248 3.06569C15.5809 2.82185 15.1845 2.82185 14.9407 3.06569C14.6969 3.30953 14.6969 3.70595 14.9407 3.94979L19.2435 8.25762C19.3661 8.3789 19.5261 8.44021 19.6862 8.44021C19.8463 8.44021 20.0063 8.38018 20.1276 8.25762C20.3715 8.01378 20.3715 7.61736 20.1276 7.37352Z" fill="white"/>
<path d="M26.2383 5.9829L21.9342 1.67507C21.6903 1.43123 21.2939 1.43123 21.0501 1.67507C20.8062 1.91891 20.8062 2.31533 21.0501 2.55917L25.3541 6.867C25.4767 6.98827 25.6367 7.04958 25.7968 7.04958C25.9569 7.04958 26.1169 6.98833 26.2382 6.867C26.4821 6.62316 26.4821 6.22674 26.2383 5.9829Z" fill="white"/>
</g>
<defs>
<clipPath id="clip0">
<rect width="30" height="30" fill="white"/>
</clipPath>
</defs>
</svg>
